<?xml version="1.0" encoding="UTF-8" standalone="no"?>
<svg
   width="128"
   height="128"
   viewBox="0 0 128 128"
   fill="none"
   role="img"
   aria-labelledby="title desc"
   version="1.1"
   id="svg5"
   sodipodi:docname="logo.svg"
   xml:space="preserve"
   xmlns:inkscape="http://www.inkscape.org/namespaces/inkscape"
   xmlns:sodipodi="http://sodipodi.sourceforge.net/DTD/sodipodi-0.dtd"
   xmlns:xlink="http://www.w3.org/1999/xlink"
   xmlns="http://www.w3.org/2000/svg"
   xmlns:svg="http://www.w3.org/2000/svg"><sodipodi:namedview
     id="namedview5"
     pagecolor="#50505000"
     bordercolor="#eeeeeeff"
     borderopacity="1"
     inkscape:showpageshadow="0"
     inkscape:pageopacity="0"
     inkscape:pagecheckerboard="0"
     inkscape:deskcolor="#505050ff"
     showgrid="false"
     inkscape:zoom="10.380107"
     inkscape:cx="61.271047"
     inkscape:cy="91.087697"
     inkscape:window-width="3840"
     inkscape:window-height="2088"
     inkscape:window-maximized="1"
     inkscape:current-layer="svg5" /><title
     id="title">AI Tab Sorter – Logo</title><desc
     id="desc">Simple bold logo with colorful tabs and AI lightning symbol, optimized for small sizes.</desc><!-- 背景 --><rect
     x="0"
     y="0"
     width="128"
     height="128"
     rx="24"
     fill="url(#bg)"
     id="rect1" /><defs
     id="defs2"><linearGradient
       id="bg"
       x1="0"
       y1="0"
       x2="128"
       y2="128"
       gradientUnits="userSpaceOnUse"><stop
         offset="0"
         stop-color="#635BFF"
         id="stop1" /><stop
         offset="1"
         stop-color="#39B7FF"
         id="stop2" /></linearGradient><clipPath
       id="clip-network"><rect
         width="32"
         height="32"
         id="rect1-3" /></clipPath><linearGradient
       id="gradient6"
       inkscape:collect="always"><stop
         style="stop-color:#5b8fbb;stop-opacity:1;"
         offset="0"
         id="stop6" /><stop
         style="stop-color:#ad84c9;stop-opacity:1;"
         offset="1"
         id="stop7" /></linearGradient><linearGradient
       inkscape:collect="always"
       xlink:href="#gradient6"
       id="linearGradient7"
       x1="28.196171"
       y1="107.27113"
       x2="99.087875"
       y2="36.379421"
       gradientUnits="userSpaceOnUse" /></defs><!-- タブのコンテナ --><rect
     x="8"
     y="18"
     width="112"
     height="100"
     rx="12"
     fill="white"
     fill-opacity="0.9"
     id="rect2" /><!-- タブ（3色カテゴリ） --><rect
     x="15"
     y="8"
     width="30"
     height="18"
     rx="4"
     fill="#FF6B6B"
     id="rect3" /><rect
     x="49"
     y="8"
     width="30"
     height="18"
     rx="4"
     fill="#FFD166"
     id="rect4" /><rect
     x="84"
     y="8"
     width="30"
     height="18"
     rx="4"
     fill="#06D6A0"
     id="rect5" /><path
     id="Path_3713"
     data-name="Path 3713"
     d="m 24.218298,117.01128 a 10.639443,10.639443 0 0 0 7.8369,-17.878238 L 49.800137,83.155073 a 17.133161,17.133161 0 0 0 21.750535,0.112739 l 14.255414,14.275925 a 9.0741152,9.0741152 0 0 0 -1.350008,4.726743 9.1869009,9.1869009 0 1 0 9.183481,-9.183486 9.0912042,9.0912042 0 0 0 -5.543586,1.910525 L 74.014856,80.892485 a 17.365568,17.365568 0 0 0 4.244843,-11.302488 c 0,-0.393046 -0.08887,-0.758745 -0.116134,-1.144942 l 19.019754,-2.464194 a 8.7152521,8.7152521 0 1 0 -0.82367,-3.653576 c 0,0.105908 0.0273,0.201649 0.0308,0.307602 L 77.593337,65.068311 A 17.382655,17.382655 0 0 0 73.950023,58.205494 L 86.708471,44.534505 a 9.4876627,9.4876627 0 0 0 4.784838,1.332927 9.614119,9.614119 0 1 0 -9.610699,-9.610711 9.5115868,9.5115868 0 0 0 2.211285,6.05625 L 71.448236,55.833574 A 17.010122,17.010122 0 0 0 52.503667,54.206724 L 42.346122,44.179058 a 10.253238,10.253238 0 1 0 -2.696596,2.136093 L 49.61225,56.15142 A 17.215186,17.215186 0 0 0 47.336037,80.742106 L 29.286918,96.990068 a 10.547164,10.547164 0 0 0 -5.09245,-1.3671 10.680456,10.680456 0 0 0 0,21.360912 z M 105.09926,56.985398 a 5.3419368,5.3419368 0 1 1 -5.341941,5.341943 5.3453546,5.3453546 0 0 1 5.341941,-5.341943 z M 28.275168,37.548691 a 6.6235915,6.6235915 0 1 1 6.6236,6.620163 6.6304271,6.6304271 0 0 1 -6.6236,-6.620163 z m 65.364391,58.956101 a 5.769155,5.769155 0 1 1 -5.765742,5.765738 5.7725727,5.7725727 0 0 1 5.765742,-5.765738 z M 91.503468,30.070661 a 6.1963731,6.1963731 0 1 1 -6.192961,6.19636 6.2032087,6.2032087 0 0 1 6.192961,-6.19636 z M 71.424209,69.590046 A 10.680456,10.680456 0 1 1 60.74375,58.909583 10.694127,10.694127 0 0 1 71.424209,69.590046 Z M 24.218298,99.068102 a 7.26271,7.26271 0 1 1 -7.26272,7.262708 7.2695456,7.2695456 0 0 1 7.26272,-7.262708 z"
     fill="#344952"
     style="stroke-width:3.41774;fill:url(#linearGradient7)" /></svg>
